<?xml version="1.0" encoding="utf-8"?>
<!-- Generator: Adobe Illustrator 16.0.0, SVG Export Plug-In . SVG Version: 6.00 Build 0)  -->
<!DOCTYPE svg PUBLIC "-//W3C//DTD SVG 1.1//EN" "http://www.w3.org/Graphics/SVG/1.1/DTD/svg11.dtd">
<svg version="1.1" id="Layer_2" xmlns="http://www.w3.org/2000/svg" xmlns:xlink="http://www.w3.org/1999/xlink" x="0px" y="0px"
	 width="781.334px" height="185.167px" viewBox="0 0 781.334 185.167" enable-background="new 0 0 781.334 185.167"
	 xml:space="preserve">
<path fill="#FFFFFF" d="M105.544,63.787H85.232V43.972h20.312V63.787z M85.374,69.681h20.028v71.729H85.374V69.681z"/>
<g>
	<path fill="#FFFFFF" d="M242.905,55.928h-26.561V30.017h26.561V55.928z M216.53,63.636h26.189v93.8H216.53V63.636z"/>
	<path fill="#FFFFFF" d="M242.905,55.928h-26.561V30.017h26.561V55.928z"/>
	<path fill="#FFFFFF" d="M261.945,63.636h24.796v12.816c4.333-9.782,12.166-14.673,23.497-14.673c6.13,0,11.191,1.378,15.185,4.132
		c3.994,2.755,6.547,6.269,7.663,10.541c1.114,4.272,1.671,10.774,1.671,19.503v61.48h-26.19v-61.48
		c0-6.316-0.805-10.216-2.415-11.702c-1.61-1.486-3.777-2.229-6.501-2.229c-4.706,0-7.801,1.439-9.287,4.318
		c-1.486,2.879-2.229,8.251-2.229,16.113v54.98h-26.189V63.636z"/>
	<path fill="#FFFFFF" d="M356.581,29.807l25.446-0.116v33.945h17.273v20.618h-17.273v34.455c0,6.378,0.139,10.511,0.418,12.399
		c0.278,1.889,1.207,3.467,2.786,4.735c1.579,1.271,4.226,1.904,7.94,1.904c1.98,0,4.457-0.062,7.43-0.186v19.874
		c-5.82,1.301-11.145,1.95-15.975,1.95c-7.926,0-13.992-1.518-18.202-4.551c-4.212-3.032-6.905-6.841-8.08-11.423
		c-1.177-4.581-1.764-11.855-1.764-21.824V84.253h-10.402V63.636h10.402V29.807z"/>
	<path fill="#FFFFFF" d="M483.165,114.901h-49.129v5.182c0,8.393,1.14,14.007,3.423,16.845c2.282,2.839,5.275,4.257,8.977,4.257
		c7.957,0,12.432-5.324,13.418-15.975l23.312,1.486c-4.146,21.795-16.544,32.69-37.197,32.69c-12.739,0-22.416-4.302-29.033-12.909
		c-6.618-8.605-9.925-20.121-9.925-34.548c0-16.282,3.509-28.712,10.527-37.288c7.019-8.574,16.433-12.862,28.246-12.862
		c10.636,0,19.525,3.793,26.668,11.376C479.594,80.74,483.165,94.655,483.165,114.901z M458.46,99.763
		c0.062-1.114,0.093-1.981,0.093-2.601c0-12.073-4.07-18.11-12.212-18.11c-8.019,0-12.06,6.904-12.12,20.711H458.46z"/>
	<path fill="#FFFFFF" d="M491.488,63.636h23.031v22.661c4.148-15.912,11.547-23.868,22.197-23.868c1.299,0,2.785,0.155,4.457,0.464
		v25.54c-1.92-0.247-3.375-0.371-4.365-0.371c-12.754,0-19.131,9.658-19.131,28.975v40.399h-26.189V63.636z"/>
	<path fill="#FFFFFF" d="M567.814,93.448l-24.796-2.415c1.175-9.411,5.185-16.654,12.026-21.732
		c6.841-5.075,15.463-7.615,25.865-7.615c8.791,0,15.849,1.688,21.174,5.061c5.325,3.376,8.684,7.291,10.077,11.749
		c1.394,4.457,2.09,11.362,2.09,20.71v37.428c0,11.641,0.525,18.574,1.579,20.803h-24.329c-0.87-2.537-1.304-7.336-1.304-14.395
		c-5.748,10.897-14.307,16.345-25.677,16.345c-7.294,0-13.227-2.182-17.801-6.548c-4.573-4.364-6.859-10.727-6.859-19.084
		c0-10.463,3.46-18.559,10.382-24.286c6.92-5.727,19.526-9.147,37.819-10.263v-3.529c0-6.252-0.632-10.587-1.896-13.001
		s-3.713-3.623-7.35-3.623C572.16,79.052,568.493,83.852,567.814,93.448z M588.062,112.672c-7.616,0.864-13.049,2.547-16.3,5.045
		c-3.25,2.5-4.875,6.713-4.875,12.638c0,7.899,2.91,11.851,8.729,11.851c3.157,0,6.021-1.773,8.591-5.323
		c2.568-3.549,3.854-10.076,3.854-19.581V112.672z"/>
	<path fill="#FFFFFF" d="M718.658,157.436h-33.302l-28.734-44.638h-0.352v44.638h-27.767V29.983h27.767v79.037h0.352l26.8-41.563
		h32.952l-32.249,42.267L718.658,157.436z"/>
	<g>
		<path fill="#FFFFFF" d="M769.579,137.748c-3.715,0-6.361-0.634-7.94-1.904c-1.578-1.269-2.508-2.847-2.785-4.735
			c-0.279-1.889-0.419-6.021-0.419-12.399V87.853h17.274V67.234h-17.274V29.691l-25.446,0.116v16.768h0.151v50.749h-0.151v24.266
			c0,9.969,0.587,17.243,1.764,21.824c1.176,4.582,3.869,8.391,8.08,11.423c4.21,3.033,10.276,4.551,18.203,4.551
			c4.829,0,10.152-0.649,15.974-1.95v-19.874C774.036,137.686,771.561,137.748,769.579,137.748z"/>
	</g>
	<g>
		<polygon fill="#FFFFFF" points="731.524,67.234 721.866,67.234 706.75,87.853 731.524,87.853 		"/>
	</g>
</g>
<path fill="#FFFFFF" d="M61.625,179.141c-14.278,0-24.658-2.62-31.142-7.859c-6.484-5.24-9.726-14.572-9.726-27.997v-23.577
	c0-12.05-4.978-18.076-14.932-18.076V83.556c9.954,0,14.932-6.253,14.932-18.763V42.885c0-13.491,3.208-22.971,9.627-28.44
	c6.417-5.467,16.831-8.203,31.24-8.203v18.37c-10.479,0-15.718,5.698-15.718,17.094v20.924c0,15.718-5.044,25.64-15.128,29.766
	v0.393c10.084,4.063,15.128,14.115,15.128,30.16v20.139c0,6.418,1.228,10.969,3.684,13.654c2.456,2.686,6.467,4.028,12.034,4.028
	V179.141z"/>
<path fill="#FFFFFF" d="M186.633,101.631c-10.021,0-15.03,6.125-15.03,18.371v22.692c0,13.817-3.192,23.347-9.579,28.587
	c-6.385,5.239-16.75,7.859-31.092,7.859v-18.37c5.501,0,9.496-1.326,11.985-3.979c2.488-2.652,3.733-7.155,3.733-13.507V122.36
	c0-15.652,5.01-25.443,15.03-29.373v-0.393c-10.02-4.126-15.03-14.375-15.03-30.749V41.707c0-11.396-5.24-17.094-15.718-17.094
	V6.243c14.277,0,24.624,2.735,31.043,8.203c6.417,5.469,9.627,14.819,9.627,28.047v22.497c0,12.378,5.01,18.567,15.03,18.567
	V101.631z"/>
</svg>
